<svg width="48" height="48" viewBox="0 0 48 48" fill="none" xmlns="http://www.w3.org/2000/svg">
<path d="M0 10C0 4.47715 4.47715 0 10 0H38C43.5229 0 48 4.47715 48 10V38C48 43.5229 43.5228 48 38 48H10C4.47715 48 0 43.5228 0 38V10Z" fill="url(#paint0_linear_1_375)"/>
<path d="M21.9623 33.8336C22.7074 33.8336 23.3114 33.2297 23.3114 32.4847C23.3114 31.7397 22.7074 31.1357 21.9623 31.1357C21.2173 31.1357 20.6133 31.7397 20.6133 32.4847C20.6133 33.2297 21.2173 33.8336 21.9623 33.8336Z" fill="white"/>
<path d="M29.5168 33.8336C30.2619 33.8336 30.8658 33.2297 30.8658 32.4847C30.8658 31.7397 30.2619 31.1357 29.5168 31.1357C28.7717 31.1357 28.1677 31.7397 28.1677 32.4847C28.1677 33.2297 28.7717 33.8336 29.5168 33.8336Z" fill="white"/>
<path d="M33.5043 17.7961H18.7563L17.5109 14.4748C17.3475 14.0373 17.0708 13.6636 16.7159 13.4011C16.3611 13.1385 15.944 12.9989 15.5177 13H14C13.4477 13 13 13.4477 13 14V14.3981C13 14.9503 13.4477 15.3981 14 15.3981H15.5188L20.6373 29.049C20.8046 29.495 21.1985 29.7864 21.6334 29.7864H30.2668C30.7168 29.7864 31.1193 29.4758 31.278 29.0094L34.5155 19.4172C34.5761 19.2357 34.5964 19.0405 34.5747 18.8484C34.5529 18.6563 34.4897 18.4728 34.3904 18.3137C34.2911 18.1545 34.1587 18.0244 34.0044 17.9343C33.8502 17.8441 33.6786 17.7968 33.5043 17.7961ZM29.637 24.6909H27.0293V26.9391H25.1405V24.6909H22.4426V22.5922H25.1405V20.1942H27.0293V22.5922H29.637V24.6909Z" fill="white"/>
<defs>
<linearGradient id="paint0_linear_1_375" x1="24" y1="0" x2="24" y2="48" gradientUnits="userSpaceOnUse">
<stop stop-color="#FF7071"/>
<stop offset="1" stop-color="#E73D3E"/>
</linearGradient>
</defs>
</svg>
