<svg width="34" height="34" viewBox="0 0 34 34" fill="none" xmlns="http://www.w3.org/2000/svg">
<g clip-path="url(#clip0_1_390)">
<path d="M17 5.11426C24.149 5.11426 29.9653 10.9307 29.9653 18.0796C29.9653 25.229 24.1489 31.0454 17 31.0454C9.85056 31.0454 4.03459 25.229 4.03459 18.0796C4.03459 10.9307 9.85096 5.11426 17 5.11426ZM17 28.6956C22.8532 28.6956 27.6152 23.9333 27.6152 18.0801C27.6152 12.2269 22.8533 7.4649 17 7.4649C11.1467 7.4649 6.38477 12.2269 6.38477 18.0801C6.38477 23.9336 11.1467 28.6956 17 28.6956Z" fill="#03A66B"/>
<path d="M13.3968 17.6881H16.5304V13.1444C16.5304 12.4953 17.0564 11.9692 17.7055 11.9692C18.3545 11.9692 18.8806 12.4953 18.8806 13.1444V18.8632C18.8806 19.5123 18.3545 20.0384 17.7055 20.0384H13.3967C12.7477 20.0384 12.2216 19.5123 12.2216 18.8632C12.2217 18.2142 12.7477 17.6881 13.3968 17.6881Z" fill="#03A66B"/>
<path d="M23.6561 26.4899C24.1387 26.0555 24.8818 26.0951 25.3158 26.5773L28.8411 30.4943C29.2755 30.9765 29.236 31.7196 28.7538 32.1536C28.5293 32.3561 28.2481 32.4556 27.968 32.4556C27.6464 32.4556 27.326 32.3244 27.0941 32.0663L23.5687 28.1492C23.1344 27.667 23.174 26.9239 23.6561 26.4899Z" fill="#03A66B"/>
<path d="M5.15829 30.4947L8.68364 26.5776C9.11687 26.0951 9.86028 26.0559 10.3429 26.4903C10.8255 26.9244 10.8643 27.6674 10.4302 28.1496L6.9049 32.0666C6.67341 32.3244 6.353 32.4556 6.03139 32.4556C5.75169 32.4556 5.47047 32.3561 5.24562 32.154C4.76304 31.7199 4.72426 30.9768 5.15829 30.4947Z" fill="#03A66B"/>
<path d="M23.8558 3.25705C26.1908 0.970692 29.9546 0.974212 32.2457 3.26568C33.3856 4.40514 34.0084 5.91282 34.0002 7.51095C33.9915 9.08989 33.3656 10.5682 32.2371 11.6736C32.0083 11.8973 31.7118 12.0089 31.4149 12.0089C31.1141 12.0089 30.8133 11.8937 30.5841 11.665L23.8468 4.92769C23.6251 4.70563 23.5013 4.40435 23.5029 4.09064C23.5044 3.77681 23.6314 3.47679 23.8558 3.25705ZM31.286 9.04287C31.5214 8.56853 31.6472 8.04366 31.6499 7.4984C31.655 6.53326 31.2767 5.61978 30.5841 4.92723C29.8932 4.23667 28.9797 3.89156 28.0611 3.89156C27.5241 3.89156 26.9851 4.00943 26.4885 4.24524L31.286 9.04287Z" fill="#03A66B"/>
<path d="M1.75457 3.26505C4.04604 0.973972 7.80994 0.970055 10.1448 3.25641C10.3689 3.47615 10.4962 3.77624 10.4978 4.08994C10.4994 4.40371 10.3752 4.70533 10.1535 4.92699L3.41618 11.6643C3.18701 11.8938 2.88619 12.0086 2.58537 12.0086C2.28847 12.0086 1.99157 11.897 1.7632 11.6725C0.634298 10.5675 0.00835609 9.08925 0.00012207 7.51025C-0.00811291 5.91259 0.615107 4.40491 1.75457 3.26505ZM2.7142 9.04263L7.51177 4.24507C6.16512 3.60578 4.51095 3.83262 3.41611 4.92739C2.72357 5.61994 2.34518 6.53295 2.3503 7.49856C2.35309 8.04342 2.47879 8.56869 2.7142 9.04263Z" fill="#03A66B"/>
</g>
<defs>
<clipPath id="clip0_1_390">
<rect width="34" height="34" fill="white" transform="matrix(-1 0 0 1 34 0)"/>
</clipPath>
</defs>
</svg>
