<svg width="59" height="59" viewBox="0 0 59 59" fill="none" xmlns="http://www.w3.org/2000/svg">
<path d="M26.043 0C23.1835 0 20.8574 2.32612 20.8574 5.18555V7.0293L24.3145 8.75781H26.043H27.7715L31.2285 7.0293V5.18555C31.2285 2.32612 28.9024 0 26.043 0Z" fill="#E53536"/>
<path d="M31.2285 7.0293V5.18555C31.2285 2.32612 28.9024 0 26.043 0V8.75781H27.7715L31.2285 7.0293Z" fill="#F54748"/>
<path d="M0 52.0859C0.800994 56.0306 4.46141 59 8.64258 59C12.8237 59 16.5994 56.0306 17.4004 52.0859L13.6451 50.3574H2.39964L0 52.0859Z" fill="#454545"/>
<path d="M8.64258 55.543C5.78315 55.543 3.45703 53.2168 3.45703 50.3574C3.45703 47.498 5.78315 45.1719 8.64258 45.1719C11.502 45.1719 13.9434 47.498 13.9434 50.3574C13.9434 53.2168 11.502 55.543 8.64258 55.543Z" fill="white"/>
<path d="M17.4004 20.9727H6.91406L3.45703 24.4297V34.8008L6.91406 36.5293H17.4004L22.5859 34.8008V25.4668L20.8574 24.4297L17.4004 20.9727Z" fill="#ED9F0F"/>
<path d="M3.45703 17.5156V24.4297H20.8574L22.5859 23.5349L20.8574 22.7012V17.5156H3.45703Z" fill="#FDC55E"/>
<path d="M27.7715 52.0859H0V50.3574C0 43.675 5.5324 38.2578 12.2148 38.2578L15.0957 36.5293H31.2285V49.2051L27.7715 52.0859Z" fill="#E53536"/>
<path d="M0 34.8008H24.3145V38.2578H0V34.8008Z" fill="#454545"/>
<path d="M36.4141 43.547V50.0462L34.6855 52.0859H27.7715V38.2578H24.3145C22.4131 38.2578 20.8574 36.7021 20.8574 34.8008V26.1582H31.2285V31.3438C33.1299 31.3438 34.6855 32.8994 34.6855 34.8008V41.7148L36.4141 43.547Z" fill="#5A5A5A"/>
<path d="M36.4141 43.547V50.0462L34.6855 52.0859H27.7715V38.2578H26.043V26.1582H31.2285V31.3438C33.1299 31.3438 34.6855 32.8994 34.6855 34.8008V41.7148L36.4141 43.547Z" fill="#3D3D3D"/>
<path d="M31.2285 24.4297V22.7012C31.2285 19.8417 28.9024 17.5156 26.043 17.5156C23.1835 17.5156 20.8574 19.8417 20.8574 22.7012V26.1582C20.8574 29.0221 23.179 31.3438 26.043 31.3438H39.9863C42.8502 31.3438 45.1719 29.0221 45.1719 26.1582V24.4297H31.2285Z" fill="#E53536"/>
<path d="M45.1719 26.1582V24.4297H31.2285V22.7012C31.2285 19.8417 28.9024 17.5156 26.043 17.5156V31.3438H39.9863C42.8502 31.3438 45.1719 29.0221 45.1719 26.1582Z" fill="#F54748"/>
<path d="M27.7715 8.75781H26.043H24.3145L20.8574 10.4863V12.2148C20.8574 15.0743 23.1835 17.5156 26.043 17.5156C28.9024 17.5156 31.2285 15.0743 31.2285 12.2148V10.4863L27.7715 8.75781Z" fill="#FFDFA5"/>
<path d="M31.2285 12.2148V10.4863L27.7715 8.75781H26.043V17.5156C28.9024 17.5156 31.2285 15.0743 31.2285 12.2148Z" fill="#FFA7A8"/>
<path d="M26.043 7.0293H20.8574V10.4863H26.043H34.6855V7.0293H26.043Z" fill="#5A5A5A"/>
<path d="M26.043 7.0293H34.6855V10.4863H26.043V7.0293Z" fill="#3D3D3D"/>
<path d="M49.9354 35.1873C49.7447 33.8419 49.3665 31.1918 48.6121 25.9133L41.7148 22.7012V36.5293C41.7148 39.2561 39.3658 41.7148 36.4141 41.7148H34.6855V52.0859H38.1426H55.543L59 50.3574V46.9004C59 41.3705 55.1852 36.5496 49.9354 35.1873Z" fill="#F54748"/>
<path d="M52.0859 27.8867H46.9004C44.041 27.8867 41.7148 25.5606 41.7148 22.7012C41.7148 19.8417 44.041 17.5156 46.9004 17.5156H52.0859V27.8867Z" fill="#E53536"/>
<path d="M50.8769 41.7673L50.3742 43.6881L47.4529 42.253C44.1192 43.4528 41.7148 46.6157 41.7148 50.3574C41.7148 55.1226 45.5921 58.9999 50.3574 58.9999C55.1227 58.9999 59 55.1226 59 50.3574C59 45.77 55.3963 42.0421 50.8769 41.7673Z" fill="#3D3D3D"/>
<path d="M50.3574 45.1719C47.498 45.1719 45.1719 47.498 45.1719 50.3574C45.1719 53.2168 47.498 55.543 50.3574 55.543C53.2168 55.543 55.543 53.2168 55.543 50.3574C55.543 47.498 53.2168 45.1719 50.3574 45.1719Z" fill="white"/>
<path d="M52.0692 50.1127L50.8771 41.7674C50.7016 41.7568 50.5354 41.7148 50.3575 41.7148C49.334 41.7148 48.365 41.925 47.4531 42.2531L48.6459 50.6022L52.0692 50.1127Z" fill="#A3A3A3"/>
</svg>
